<svg width="177" height="24" viewBox="0 0 177 24" fill="none" xmlns="http://www.w3.org/2000/svg">
<g filter="url(#filter0_d_7_3)">
<path d="M9.42045 15H4.2642V0.454545H9.46307C10.9261 0.454545 12.1856 0.745738 13.2415 1.32812C14.2973 1.90578 15.1094 2.73674 15.6776 3.82102C16.2505 4.9053 16.5369 6.20265 16.5369 7.71307C16.5369 9.22822 16.2505 10.5303 15.6776 11.6193C15.1094 12.7083 14.2926 13.544 13.2273 14.1264C12.1667 14.7088 10.8977 15 9.42045 15ZM7.33949 12.3651H9.29261C10.2017 12.3651 10.9664 12.2041 11.5866 11.8821C12.2116 11.5554 12.6804 11.0511 12.9929 10.3693C13.3101 9.68277 13.4688 8.79735 13.4688 7.71307C13.4688 6.63826 13.3101 5.75994 12.9929 5.07812C12.6804 4.39631 12.214 3.89441 11.5938 3.57244C10.9735 3.25047 10.2088 3.08949 9.29972 3.08949H7.33949V12.3651ZM21.8903 0.454545V15H18.815V0.454545H21.8903ZM34.0653 5.15625C33.9659 4.81061 33.8262 4.50521 33.6463 4.24006C33.4664 3.97017 33.2462 3.7429 32.9858 3.55824C32.7301 3.36884 32.4366 3.22443 32.1051 3.125C31.7784 3.02557 31.4162 2.97585 31.0185 2.97585C30.2751 2.97585 29.6217 3.16051 29.0582 3.52983C28.4995 3.89915 28.0639 4.43655 27.7514 5.14205C27.4389 5.8428 27.2827 6.69981 27.2827 7.71307C27.2827 8.72633 27.4366 9.58807 27.7443 10.2983C28.0521 11.0085 28.4877 11.5507 29.0511 11.9247C29.6146 12.294 30.2798 12.4787 31.0469 12.4787C31.7429 12.4787 32.3371 12.3556 32.8295 12.1094C33.3267 11.8584 33.7055 11.5057 33.9659 11.0511C34.2311 10.5966 34.3636 10.0592 34.3636 9.43892L34.9886 9.53125H31.2386V7.21591H37.3253V9.0483C37.3253 10.3267 37.0554 11.4252 36.5156 12.3438C35.9759 13.2576 35.2325 13.9631 34.2855 14.4602C33.3385 14.9527 32.2543 15.1989 31.0327 15.1989C29.669 15.1989 28.4711 14.8982 27.4389 14.2969C26.4067 13.6908 25.6018 12.8314 25.0241 11.7188C24.4512 10.6013 24.1648 9.27557 24.1648 7.74148C24.1648 6.5625 24.3352 5.51136 24.6761 4.58807C25.0218 3.66004 25.5047 2.87405 26.125 2.23011C26.7453 1.58617 27.4673 1.09612 28.2912 0.759943C29.1151 0.423768 30.0076 0.255681 30.9688 0.255681C31.7926 0.255681 32.5597 0.37642 33.2699 0.617898C33.9801 0.85464 34.6098 1.19081 35.1591 1.62642C35.7131 2.06203 36.1652 2.58049 36.5156 3.18182C36.866 3.77841 37.0909 4.43655 37.1903 5.15625H34.0653ZM42.7106 0.454545V15H39.6353V0.454545H42.7106ZM44.6868 2.99006V0.454545H56.6328V2.99006H52.1797V15H49.1399V2.99006H44.6868ZM59.3299 15H56.0344L61.0558 0.454545H65.0188L70.033 15H66.7376L63.0941 3.77841H62.9805L59.3299 15ZM59.1239 9.28267H66.908V11.6832H59.1239V9.28267ZM71.7837 15V0.454545H74.859V12.4645H81.0948V15H71.7837ZM90.2674 15H86.9719L91.9933 0.454545H95.9563L100.971 15H97.6751L94.0316 3.77841H93.918L90.2674 15ZM90.0614 9.28267H97.8455V11.6832H90.0614V9.28267ZM111.683 5.15625C111.583 4.81061 111.443 4.50521 111.263 4.24006C111.084 3.97017 110.863 3.7429 110.603 3.55824C110.347 3.36884 110.054 3.22443 109.722 3.125C109.396 3.02557 109.033 2.97585 108.636 2.97585C107.892 2.97585 107.239 3.16051 106.675 3.52983C106.117 3.89915 105.681 4.43655 105.369 5.14205C105.056 5.8428 104.9 6.69981 104.9 7.71307C104.9 8.72633 105.054 9.58807 105.362 10.2983C105.669 11.0085 106.105 11.5507 106.668 11.9247C107.232 12.294 107.897 12.4787 108.664 12.4787C109.36 12.4787 109.954 12.3556 110.447 12.1094C110.944 11.8584 111.323 11.5057 111.583 11.0511C111.848 10.5966 111.981 10.0592 111.981 9.43892L112.606 9.53125H108.856V7.21591H114.942V9.0483C114.942 10.3267 114.673 11.4252 114.133 12.3438C113.593 13.2576 112.85 13.9631 111.903 14.4602C110.956 14.9527 109.871 15.1989 108.65 15.1989C107.286 15.1989 106.088 14.8982 105.056 14.2969C104.024 13.6908 103.219 12.8314 102.641 11.7188C102.068 10.6013 101.782 9.27557 101.782 7.74148C101.782 6.5625 101.952 5.51136 102.293 4.58807C102.639 3.66004 103.122 2.87405 103.742 2.23011C104.362 1.58617 105.085 1.09612 105.908 0.759943C106.732 0.423768 107.625 0.255681 108.586 0.255681C109.41 0.255681 110.177 0.37642 110.887 0.617898C111.597 0.85464 112.227 1.19081 112.776 1.62642C113.33 2.06203 113.782 2.58049 114.133 3.18182C114.483 3.77841 114.708 4.43655 114.808 5.15625H111.683ZM117.252 15V0.454545H127.054V2.99006H120.328V6.45597H126.549V8.99148H120.328V12.4645H127.082V15H117.252ZM141.665 0.454545V15H139.009L132.68 5.84517H132.574V15H129.499V0.454545H132.197L138.476 9.60227H138.604V0.454545H141.665ZM157.039 5.54688H153.929C153.872 5.14441 153.756 4.78693 153.581 4.47443C153.405 4.1572 153.181 3.88731 152.906 3.66477C152.631 3.44223 152.314 3.27178 151.954 3.15341C151.599 3.03504 151.213 2.97585 150.797 2.97585C150.044 2.97585 149.388 3.16288 148.829 3.53693C148.27 3.90625 147.837 4.44602 147.529 5.15625C147.222 5.86174 147.068 6.71875 147.068 7.72727C147.068 8.7642 147.222 9.63542 147.529 10.3409C147.842 11.0464 148.278 11.5791 148.836 11.9389C149.395 12.2988 150.041 12.4787 150.775 12.4787C151.187 12.4787 151.568 12.4242 151.919 12.3153C152.274 12.2064 152.589 12.0478 152.863 11.8395C153.138 11.6264 153.365 11.3684 153.545 11.0653C153.73 10.7623 153.858 10.4167 153.929 10.0284L157.039 10.0426C156.959 10.7102 156.758 11.3542 156.436 11.9744C156.118 12.59 155.69 13.1416 155.15 13.6293C154.615 14.1122 153.976 14.4957 153.233 14.7798C152.494 15.0592 151.658 15.1989 150.725 15.1989C149.428 15.1989 148.268 14.9053 147.245 14.3182C146.227 13.7311 145.422 12.8812 144.831 11.7685C144.243 10.6558 143.95 9.30871 143.95 7.72727C143.95 6.1411 144.248 4.79167 144.845 3.67898C145.441 2.56629 146.251 1.71875 147.274 1.13636C148.297 0.549242 149.447 0.255681 150.725 0.255681C151.568 0.255681 152.35 0.374053 153.069 0.610795C153.794 0.847538 154.435 1.19318 154.994 1.64773C155.553 2.09754 156.007 2.64915 156.358 3.30256C156.713 3.95597 156.94 4.70407 157.039 5.54688ZM158.392 0.454545H161.837L165.154 6.71875H165.296L168.613 0.454545H172.057L166.752 9.85795V15H163.698V9.85795L158.392 0.454545Z" fill="#272D38"/>
</g>
<defs>
<filter id="filter0_d_7_3" x="0.264221" y="0.255676" width="175.793" height="22.9432" filterUnits="userSpaceOnUse" color-interpolation-filters="sRGB">
<feFlood flood-opacity="0" result="BackgroundImageFix"/>
<feColorMatrix in="SourceAlpha" type="matrix" values="0 0 0 0 0 0 0 0 0 0 0 0 0 0 0 0 0 0 127 0" result="hardAlpha"/>
<feOffset dy="4"/>
<feGaussianBlur stdDeviation="2"/>
<feComposite in2="hardAlpha" operator="out"/>
<feColorMatrix type="matrix" values="0 0 0 0 0 0 0 0 0 0 0 0 0 0 0 0 0 0 0.25 0"/>
<feBlend mode="normal" in2="BackgroundImageFix" result="effect1_dropShadow_7_3"/>
<feBlend mode="normal" in="SourceGraphic" in2="effect1_dropShadow_7_3" result="shape"/>
</filter>
</defs>
</svg>
